<svg width="83" height="83" viewBox="0 0 83 83" fill="none" xmlns="http://www.w3.org/2000/svg">
<g filter="url(#filter0_d_1_739)">
<path d="M41.6695 0.647339C62.51 0.647339 79.4046 17.5419 79.4046 38.3825C79.4046 59.223 62.51 76.1176 41.6695 76.1176C20.8289 76.1176 3.93433 59.223 3.93433 38.3825C3.93433 17.5419 20.8289 0.647339 41.6695 0.647339Z" fill="white"/>
</g>
<path d="M26.4691 38.3825H22.1262C22.1262 49.1587 30.8933 57.9258 41.6695 57.9258V53.5829C33.288 53.5829 26.4691 46.764 26.4691 38.3825ZM41.6695 10.5875C26.0836 10.5875 13.8745 22.7964 13.8745 38.3825C13.8745 53.9685 26.0836 66.1775 41.6695 66.1775C57.2556 66.1775 69.4645 53.9685 69.4645 38.3825C69.4645 22.7964 57.2556 10.5875 41.6695 10.5875ZM41.6695 61.8345C28.5188 61.8345 18.2175 51.5331 18.2175 38.3825C18.2175 25.2318 28.5188 14.9304 41.6695 14.9304C54.8201 14.9304 65.1216 25.2318 65.1216 38.3825C65.1216 51.5331 54.8201 61.8345 41.6695 61.8345ZM41.6695 29.6965C36.8801 29.6965 32.9836 33.593 32.9836 38.3825C32.9836 43.1719 36.8801 47.0684 41.6695 47.0684C46.4589 47.0684 50.3555 43.1719 50.3555 38.3825C50.3555 33.593 46.4589 29.6965 41.6695 29.6965ZM41.6695 42.7254C39.2748 42.7254 37.3265 40.7772 37.3265 38.3825C37.3265 35.9878 39.2748 34.0395 41.6695 34.0395C44.0642 34.0395 46.0125 35.9878 46.0125 38.3825C46.0125 40.7772 44.0642 42.7254 41.6695 42.7254ZM41.6695 18.8391V23.1821C50.051 23.1821 56.8699 30.001 56.8699 38.3825H61.2129C61.2129 27.6063 52.4457 18.8391 41.6695 18.8391Z" fill="url(#paint0_linear_1_739)"/>
<defs>
<filter id="filter0_d_1_739" x="0.934326" y="0.647339" width="81.4702" height="81.4703" filterUnits="userSpaceOnUse" color-interpolation-filters="sRGB">
<feFlood flood-opacity="0" result="BackgroundImageFix"/>
<feColorMatrix in="SourceAlpha" type="matrix" values="0 0 0 0 0 0 0 0 0 0 0 0 0 0 0 0 0 0 127 0" result="hardAlpha"/>
<feOffset dy="3"/>
<feGaussianBlur stdDeviation="1.5"/>
<feComposite in2="hardAlpha" operator="out"/>
<feColorMatrix type="matrix" values="0 0 0 0 0 0 0 0 0 0 0 0 0 0 0 0 0 0 0.160784 0"/>
<feBlend mode="normal" in2="BackgroundImageFix" result="effect1_dropShadow_1_739"/>
<feBlend mode="normal" in="SourceGraphic" in2="effect1_dropShadow_1_739" result="shape"/>
</filter>
<linearGradient id="paint0_linear_1_739" x1="27.772" y1="24.485" x2="27.772" y2="24.485" gradientUnits="userSpaceOnUse">
<stop offset="1" stop-color="#FF9B4E"/>
<stop stop-color="#FF6161"/>
</linearGradient>
</defs>
</svg>
