<svg width="286" height="59" viewBox="0 0 286 59" fill="none" xmlns="http://www.w3.org/2000/svg">
<path d="M79.3224 44.5941C78.9597 44.5941 78.6717 44.4981 78.4584 44.3061C78.245 44.1141 78.0957 43.8901 78.0104 43.6341L71.4824 23.1541C71.4397 23.0474 71.4184 22.9514 71.4184 22.8661C71.4184 22.6954 71.4824 22.5461 71.6104 22.4181C71.7597 22.2687 71.9304 22.1941 72.1224 22.1941H76.0904C76.4317 22.1941 76.6984 22.2901 76.8904 22.4821C77.0824 22.6741 77.1997 22.8554 77.2424 23.0261L81.7544 37.8101L86.2984 23.0261C86.3624 22.8554 86.4797 22.6741 86.6504 22.4821C86.8424 22.2901 87.109 22.1941 87.4504 22.1941H91.4184C91.6104 22.1941 91.7704 22.2687 91.8984 22.4181C92.0477 22.5461 92.1224 22.6954 92.1224 22.8661C92.1224 22.9514 92.101 23.0474 92.0584 23.1541L85.5304 43.6341C85.445 43.8901 85.2957 44.1141 85.0824 44.3061C84.8904 44.4981 84.6024 44.5941 84.2184 44.5941H79.3224ZM95.9099 44.5941C95.6752 44.5941 95.4832 44.5194 95.3339 44.3701C95.1845 44.2207 95.1099 44.0287 95.1099 43.7941V22.9941C95.1099 22.7594 95.1845 22.5674 95.3339 22.4181C95.4832 22.2687 95.6752 22.1941 95.9099 22.1941H100.198C100.433 22.1941 100.625 22.2687 100.774 22.4181C100.923 22.5674 100.998 22.7594 100.998 22.9941V43.7941C100.998 44.0287 100.923 44.2207 100.774 44.3701C100.625 44.5194 100.433 44.5941 100.198 44.5941H95.9099ZM106.285 44.5941C106.05 44.5941 105.858 44.5194 105.709 44.3701C105.56 44.2207 105.485 44.0287 105.485 43.7941V22.9941C105.485 22.7594 105.56 22.5674 105.709 22.4181C105.858 22.2687 106.05 22.1941 106.285 22.1941H114.989C117.741 22.1941 119.906 22.8341 121.485 24.1141C123.085 25.3727 123.885 27.1647 123.885 29.4901C123.885 31.0047 123.512 32.2847 122.765 33.3301C122.04 34.3754 121.08 35.1647 119.885 35.6981L124.301 43.5701C124.365 43.6981 124.397 43.8154 124.397 43.9221C124.397 44.0927 124.322 44.2527 124.173 44.4021C124.045 44.5301 123.885 44.5941 123.693 44.5941H119.469C119.064 44.5941 118.765 44.4981 118.573 44.3061C118.381 44.0927 118.242 43.9007 118.157 43.7301L114.509 36.6901H111.213V43.7941C111.213 44.0287 111.138 44.2207 110.989 44.3701C110.84 44.5194 110.648 44.5941 110.413 44.5941H106.285ZM111.213 32.1781H114.925C115.928 32.1781 116.674 31.9327 117.165 31.4421C117.677 30.9514 117.933 30.2794 117.933 29.4261C117.933 28.5941 117.688 27.9221 117.197 27.4101C116.728 26.8981 115.97 26.6421 114.925 26.6421H111.213V32.1781ZM132.8 44.5941C132.566 44.5941 132.374 44.5194 132.224 44.3701C132.075 44.2207 132 44.0287 132 43.7941V27.2181H126.304C126.07 27.2181 125.878 27.1434 125.728 26.9941C125.579 26.8234 125.504 26.6314 125.504 26.4181V22.9941C125.504 22.7594 125.579 22.5674 125.728 22.4181C125.878 22.2687 126.07 22.1941 126.304 22.1941H143.52C143.755 22.1941 143.947 22.2687 144.096 22.4181C144.246 22.5674 144.32 22.7594 144.32 22.9941V26.4181C144.32 26.6314 144.246 26.8234 144.096 26.9941C143.947 27.1434 143.755 27.2181 143.52 27.2181H137.824V43.7941C137.824 44.0287 137.75 44.2207 137.6 44.3701C137.451 44.5194 137.259 44.5941 137.024 44.5941H132.8ZM156.604 44.9141C154.684 44.9141 152.999 44.6047 151.548 43.9861C150.119 43.3461 149.01 42.3754 148.22 41.0741C147.431 39.7514 147.036 38.0767 147.036 36.0501V22.9941C147.036 22.7594 147.111 22.5674 147.26 22.4181C147.41 22.2687 147.602 22.1941 147.836 22.1941H151.964C152.199 22.1941 152.391 22.2687 152.54 22.4181C152.69 22.5674 152.764 22.7594 152.764 22.9941V36.0181C152.764 37.4047 153.095 38.4501 153.756 39.1541C154.439 39.8367 155.388 40.1781 156.604 40.1781C157.799 40.1781 158.727 39.8367 159.388 39.1541C160.071 38.4501 160.412 37.4047 160.412 36.0181V22.9941C160.412 22.7594 160.487 22.5674 160.636 22.4181C160.807 22.2687 160.999 22.1941 161.212 22.1941H165.372C165.586 22.1941 165.767 22.2687 165.916 22.4181C166.087 22.5674 166.172 22.7594 166.172 22.9941V36.0501C166.172 38.0767 165.778 39.7514 164.988 41.0741C164.199 42.3754 163.09 43.3461 161.66 43.9861C160.231 44.6047 158.546 44.9141 156.604 44.9141ZM167.998 44.5941C167.827 44.5941 167.667 44.5301 167.518 44.4021C167.39 44.2527 167.326 44.0927 167.326 43.9221C167.326 43.8154 167.337 43.7194 167.358 43.6341L174.878 23.0901C174.942 22.8554 175.07 22.6527 175.262 22.4821C175.475 22.2901 175.763 22.1941 176.126 22.1941H180.862C181.225 22.1941 181.502 22.2901 181.694 22.4821C181.907 22.6527 182.046 22.8554 182.11 23.0901L189.598 43.6341C189.641 43.7194 189.662 43.8154 189.662 43.9221C189.662 44.0927 189.587 44.2527 189.438 44.4021C189.31 44.5301 189.15 44.5941 188.958 44.5941H185.022C184.702 44.5941 184.457 44.5194 184.286 44.3701C184.137 44.1994 184.041 44.0501 183.998 43.9221L182.75 40.6581H174.206L172.99 43.9221C172.947 44.0501 172.851 44.1994 172.702 44.3701C172.553 44.5194 172.297 44.5941 171.934 44.5941H167.998ZM175.518 36.0501H181.47L178.462 27.6021L175.518 36.0501ZM192.984 44.5941C192.75 44.5941 192.558 44.5194 192.408 44.3701C192.259 44.2207 192.184 44.0287 192.184 43.7941V22.9941C192.184 22.7594 192.259 22.5674 192.408 22.4181C192.558 22.2687 192.75 22.1941 192.984 22.1941H197.208C197.422 22.1941 197.603 22.2687 197.752 22.4181C197.923 22.5674 198.008 22.7594 198.008 22.9941V39.7621H207.672C207.907 39.7621 208.099 39.8474 208.248 40.0181C208.419 40.1674 208.504 40.3594 208.504 40.5941V43.7941C208.504 44.0287 208.419 44.2207 208.248 44.3701C208.099 44.5194 207.907 44.5941 207.672 44.5941H192.984Z" fill="#E1C9FF"/>
<path d="M212.75 44.5941C212.537 44.5941 212.366 44.5301 212.238 44.4021C212.11 44.2741 212.046 44.1034 212.046 43.8901V22.9301C212.046 22.6954 212.11 22.5141 212.238 22.3861C212.366 22.2581 212.537 22.1941 212.75 22.1941H220.206C222.446 22.1941 224.227 22.7274 225.55 23.7941C226.894 24.8607 227.566 26.4821 227.566 28.6581C227.566 30.3647 227.139 31.7301 226.286 32.7541C225.433 33.7781 224.249 34.4714 222.734 34.8341L227.886 43.6021C227.95 43.7301 227.982 43.8474 227.982 43.9541C227.982 44.1247 227.918 44.2741 227.79 44.4021C227.662 44.5301 227.513 44.5941 227.342 44.5941H226.958C226.617 44.5941 226.361 44.5087 226.19 44.3381C226.019 44.1461 225.87 43.9434 225.742 43.7301L220.654 35.1221H214.062V43.8901C214.062 44.1034 213.998 44.2741 213.87 44.4021C213.742 44.5301 213.561 44.5941 213.326 44.5941H212.75ZM214.062 33.2021H220.046C221.902 33.2021 223.278 32.8287 224.174 32.0821C225.091 31.3141 225.55 30.1727 225.55 28.6581C225.55 27.1434 225.091 26.0127 224.174 25.2661C223.278 24.4981 221.902 24.1141 220.046 24.1141H214.062V33.2021ZM233.219 44.5941C233.006 44.5941 232.835 44.5301 232.707 44.4021C232.579 44.2741 232.515 44.1034 232.515 43.8901V22.9301C232.515 22.6954 232.579 22.5141 232.707 22.3861C232.835 22.2581 233.006 22.1941 233.219 22.1941H245.699C245.934 22.1941 246.115 22.2581 246.243 22.3861C246.371 22.5141 246.435 22.6954 246.435 22.9301V23.4101C246.435 23.6234 246.371 23.7941 246.243 23.9221C246.115 24.0501 245.934 24.1141 245.699 24.1141H234.531V32.2741H244.995C245.23 32.2741 245.411 32.3381 245.539 32.4661C245.667 32.5941 245.731 32.7754 245.731 33.0101V33.4901C245.731 33.7034 245.667 33.8741 245.539 34.0021C245.411 34.1301 245.23 34.1941 244.995 34.1941H234.531V42.6741H245.955C246.19 42.6741 246.371 42.7381 246.499 42.8661C246.627 42.9941 246.691 43.1754 246.691 43.4101V43.8901C246.691 44.1034 246.627 44.2741 246.499 44.4021C246.371 44.5301 246.19 44.5941 245.955 44.5941H233.219ZM252.156 44.5941C251.943 44.5941 251.772 44.5301 251.644 44.4021C251.516 44.2741 251.452 44.1034 251.452 43.8901V22.9301C251.452 22.6954 251.516 22.5141 251.644 22.3861C251.772 22.2581 251.943 22.1941 252.156 22.1941H264.636C264.871 22.1941 265.052 22.2581 265.18 22.3861C265.308 22.5141 265.372 22.6954 265.372 22.9301V23.4101C265.372 23.6234 265.308 23.7941 265.18 23.9221C265.052 24.0501 264.871 24.1141 264.636 24.1141H253.468V32.2741H263.932C264.167 32.2741 264.348 32.3381 264.476 32.4661C264.604 32.5941 264.668 32.7754 264.668 33.0101V33.4901C264.668 33.7034 264.604 33.8741 264.476 34.0021C264.348 34.1301 264.167 34.1941 263.932 34.1941H253.468V42.6741H264.892C265.127 42.6741 265.308 42.7381 265.436 42.8661C265.564 42.9941 265.628 43.1754 265.628 43.4101V43.8901C265.628 44.1034 265.564 44.2741 265.436 44.4021C265.308 44.5301 265.127 44.5941 264.892 44.5941H252.156ZM271.094 44.5941C270.881 44.5941 270.71 44.5301 270.582 44.4021C270.454 44.2741 270.39 44.1034 270.39 43.8901V22.8981C270.39 22.6847 270.454 22.5141 270.582 22.3861C270.71 22.2581 270.881 22.1941 271.094 22.1941H271.702C271.915 22.1941 272.086 22.2581 272.214 22.3861C272.342 22.5141 272.406 22.6847 272.406 22.8981V42.6741H283.446C283.681 42.6741 283.862 42.7381 283.99 42.8661C284.118 42.9941 284.182 43.1754 284.182 43.4101V43.8901C284.182 44.1034 284.118 44.2741 283.99 44.4021C283.862 44.5301 283.681 44.5941 283.446 44.5941H271.094Z" fill="white"/>
<path d="M12.3979 7.00659H15.7147C15.9457 6.99502 16.1714 7.0788 16.3389 7.23835C16.5064 7.39789 16.6011 7.61921 16.6008 7.85055V11.1673C16.6131 11.4059 16.5237 11.6385 16.3548 11.8074C16.1858 11.9764 15.9533 12.0658 15.7147 12.0535H12.3979C12.1665 12.0538 11.9452 11.9591 11.7857 11.7916C11.6261 11.6241 11.5424 11.3984 11.5539 11.1673V7.89275C11.5424 7.6617 11.6261 7.43603 11.7857 7.26851C11.9452 7.10098 12.1665 7.0063 12.3979 7.00659ZM6.27068 18.9319V14.2647C6.25247 13.8365 5.89747 13.5002 5.46891 13.5051H0.843968C0.408921 13.503 0.0435005 13.8318 1.00609e-07 14.2647L0 18.9319C0.0225056 19.3814 0.393852 19.7342 0.843968 19.7336H5.46891C5.90263 19.7124 6.24949 19.3656 6.27068 18.9319ZM4.79374 11.3361C4.79374 11.6545 5.04938 11.9139 5.3677 11.9185L7.7645 11.9185C8.08612 11.9185 8.34684 11.6578 8.34684 11.3361V8.95615C8.34223 8.63783 8.08285 8.38222 7.7645 8.38225H5.36764C5.05258 8.38679 4.79827 8.64109 4.79374 8.95615L4.79374 11.3361ZM2.45595 8.18814H3.53623C3.72733 8.18814 3.88225 8.03322 3.88225 7.84211V6.75339C3.87767 6.56559 3.72408 6.41575 3.53623 6.41581L2.45595 6.41581C2.36496 6.41353 2.27691 6.44809 2.21176 6.51165C2.14661 6.57521 2.10989 6.66238 2.10992 6.75339V7.84211C2.10992 8.03322 2.26484 8.18814 2.45595 8.18814ZM2.92013 2.33944H4.60806C4.79917 2.33944 4.95409 2.18452 4.95409 1.99342V0.347679C4.95456 0.249747 4.91351 0.156204 4.84111 0.0902466C4.76872 0.0242896 4.67177 -0.00790298 4.57431 0.00165249H2.88637C2.69526 0.00165249 2.54034 0.156574 2.54034 0.347679L2.54034 2.03561C2.56241 2.22378 2.7317 2.35922 2.92013 2.33944ZM9.28365 6.18794H11.2923C11.6945 6.18331 12.0181 5.85593 12.0181 5.45368V3.45348C12.0181 3.05263 11.6931 2.72767 11.2923 2.72767H9.28365C8.88279 2.72767 8.55783 3.05263 8.55783 3.45348V5.45368C8.55783 5.85598 8.88143 6.18334 9.28365 6.18794ZM57.3898 22.3246C54.7904 24.4767 47.0343 30.6377 47.0343 30.6377C47.0343 30.6377 44.629 28.1733 45.051 26.1647C45.3126 24.924 45.6502 22.8647 44.6797 22.0799C44.0804 21.5988 42.4853 21.2359 39.9703 23.1854C37.4553 25.135 33.7418 28.418 30.0199 28.418C26.298 28.418 23.8927 27.9961 22.112 25.8861C21.168 24.8015 20.3602 23.6054 19.7066 22.3246C18.5467 23.3154 18.0745 24.8937 18.4998 26.3588C18.9974 27.4978 19.7111 28.5295 20.6013 29.397L18.3479 31.5407C18.3479 31.5407 16.6599 29.4983 14.415 29.6587C12.17 29.819 8.92074 33.2371 12.2207 37.7692C15.5206 42.3013 20.4409 38.4022 20.4409 38.4022C20.4409 38.4022 23.8168 42.8499 27.7159 43.5841C31.615 44.3184 35.261 42.6389 37.6156 40.8581C39.9703 39.0774 42.1731 36.8324 43.7935 36.1994C44.4378 35.8643 45.1978 35.8326 45.8678 36.113C46.5378 36.3934 47.0486 36.9569 47.2622 37.6511C48.2581 39.9044 43.7597 45.2974 42.7638 47.9643C42.0158 49.5847 41.4497 51.283 41.0759 53.0281C40.8692 54.3912 40.7676 55.7681 40.7721 57.1467C40.7721 58.0789 40.0164 58.8347 39.0841 58.8346L20.6434 58.7587C20.1434 58.7548 19.6708 58.5294 19.3531 58.1433C19.0353 57.7571 18.9052 57.2499 18.9977 56.7585C19.198 55.5962 19.235 54.4116 19.1074 53.2391C18.7614 49.5341 12.4823 46.4874 10.1782 45.2805C7.87422 44.0737 1.17312 39.5669 2.15212 27.9117C2.15212 27.6247 2.21964 27.3378 2.26183 27.0677H4.10168C4.40611 27.0677 4.65413 26.8234 4.6587 26.5191L4.6587 23.9872C4.65409 23.6829 4.40605 23.4386 4.10168 23.4386H3.37587C3.6917 22.7229 4.05543 22.0293 4.46459 21.3625L4.46459 22.2655C4.46459 22.6804 4.80088 23.0167 5.21572 23.0167H9.9757C10.1764 23.0189 10.3696 22.9408 10.5123 22.7997C10.655 22.6586 10.7353 22.4662 10.7353 22.2655L10.7353 17.8178H11.7649C11.9187 17.8178 12.0434 17.6931 12.0434 17.5393L12.0434 16.189C12.0434 16.0351 11.9187 15.9104 11.7649 15.9104H10.3808C10.227 15.9104 10.1023 16.0351 10.1023 16.189L10.1023 16.7544C10.052 16.7458 10.0006 16.7458 9.95038 16.7544H8.16117C9.42037 15.51 10.8227 14.4193 12.3388 13.5051L12.381 13.5051V14.4082C12.381 15.0761 12.92 15.6189 13.5879 15.6235H17.4448C18.1127 15.6189 18.6517 15.0761 18.6517 14.4082V10.8804C20.15 10.4442 21.6833 10.1393 23.2344 9.96891C23.2344 9.96891 26.6103 4.38185 28.467 3.61383C30.3238 2.84582 39.2023 3.14121 42.5697 3.61383C46.2663 4.10334 52.1319 5.1161 54.1574 6.98971C56.1829 8.86332 57.3392 12.4755 58.0312 14.6361C58.7233 16.7966 60.0905 20.164 57.4404 22.3246H57.3898ZM14.9467 24.1645C14.9489 24.0175 14.8921 23.8758 14.789 23.7711C14.6859 23.6664 14.5451 23.6074 14.3981 23.6074H11.8662C11.7192 23.6074 11.5783 23.6664 11.4752 23.7711C11.3721 23.8758 11.3153 24.0175 11.3176 24.1645V26.6964C11.3176 26.9993 11.5632 27.2449 11.8662 27.2449H14.3981C14.7011 27.2449 14.9467 26.9993 14.9467 26.6964V24.1645ZM16.8034 21.9701C16.8058 21.8956 16.7772 21.8233 16.7244 21.7706C16.6717 21.7178 16.5995 21.6893 16.5249 21.6916H15.5037C15.4284 21.6822 15.3525 21.7038 15.2936 21.7516C15.2346 21.7994 15.1977 21.8692 15.1914 21.9448L15.1914 22.966C15.1914 23.1198 15.3161 23.2445 15.4699 23.2445L16.4911 23.2445C16.6449 23.2445 16.7696 23.1198 16.7696 22.966L16.8034 21.9701ZM23.1669 16.0624C23.1669 15.7734 22.9326 15.5391 22.6437 15.5391H19.8332C19.5443 15.5391 19.31 15.7734 19.31 16.0624V18.8728C19.31 19.1618 19.5443 19.396 19.8332 19.396H22.6437C22.9326 19.396 23.1669 19.1618 23.1669 18.8728V16.0624ZM24.8549 19.5817C24.8549 19.4698 24.7642 19.3792 24.6523 19.3792H23.6311C23.5781 19.3791 23.5274 19.4007 23.4908 19.439C23.4541 19.4772 23.4347 19.5288 23.437 19.5817V20.5945C23.4347 20.6474 23.4541 20.699 23.4908 20.7372C23.5274 20.7755 23.5781 20.7971 23.6311 20.797H24.6523C24.7642 20.797 24.8549 20.7063 24.8549 20.5945L24.8549 19.5817ZM58.0144 18.9487C57.8371 17.8009 55.6344 9.04899 52.9505 7.39481C50.5706 5.95162 48.5113 5.37773 42.8229 4.63504C37.1346 3.89234 31.8513 3.86702 29.7921 4.63504C27.7328 5.40305 27.8509 6.51708 27.8509 7.12474C27.9587 9.70063 28.5814 12.2288 29.6823 14.5601C30.4691 16.3885 32.2662 17.5755 34.2567 17.5815C36.0374 17.6828 40.8818 17.092 43.0846 17.0245C45.8382 17.0317 48.5751 17.4528 51.2035 18.2736C52.8048 19.0324 54.4678 19.6535 56.1745 20.1303C57.2632 20.2569 58.1747 20.1303 57.9975 18.974L58.0144 18.9487Z" fill="url(#paint0_linear_1_764)"/>
<defs>
<linearGradient id="paint0_linear_1_764" x1="51.8687" y1="20.5086" x2="10.7417" y2="20.5086" gradientUnits="userSpaceOnUse">
<stop offset="1" stop-color="#68D1FF"/>
<stop stop-color="#C99AFF"/>
</linearGradient>
</defs>
</svg>
